<svg width="143" height="32" viewBox="0 0 143 32" fill="none" xmlns="http://www.w3.org/2000/svg">
<path d="M29.6433 0H17.6048C17.2046 0 16.8721 0.319822 16.8721 0.71809V7.34986C16.8721 7.74209 17.1984 8.06192 17.5987 8.06192H29.6433C30.0435 8.06192 30.3699 7.74209 30.3699 7.34986V0.71809C30.3699 0.325856 30.0435 0 29.6371 0H29.6433Z" fill="#510B98"/>
<path d="M6.95829 0.724124C6.43488 0.205168 6.00999 0 5.16638 0H0.732776C0.326362 0 0 0.319822 0 0.71809V7.34986C0 7.74209 0.326362 8.06192 0.726618 8.06192H8.44229C9.89557 8.06192 11.0717 9.2145 11.0717 10.6446V19.847C11.0717 19.847 11.0717 19.8953 11.0717 19.9194V23.9383C11.0717 24.6625 11.2811 25.1754 11.9153 25.7969L18.0238 31.783C18.4918 32.2476 19.2985 31.9158 19.2985 31.2641V25.9357C19.2985 25.9357 19.2985 25.9176 19.2985 25.9056V20.9151C19.2985 20.9151 19.2985 20.891 19.2985 20.8849V13.861C19.2985 13.1368 19.0891 12.6239 18.4548 12.0023L6.95829 0.724124Z" fill="#510B98"/>
<path d="M58.5854 9.5463V8.27309C58.5854 8.02567 58.3761 7.8205 58.1236 7.8205H52.6247C52.3784 7.8205 52.1875 8.01963 52.1875 8.27309V9.5463C52.1875 9.79979 52.3784 9.99889 52.6247 9.99889H58.1236C58.3761 9.99889 58.5854 9.79372 58.5854 9.5463Z" fill="black"/>
<path d="M52.2684 11.0967C52.2684 10.8734 52.1945 10.6924 52.0467 10.5475L49.5282 8.05539C49.3496 7.91056 49.1895 7.85022 48.9801 7.85022H44.6881C44.4296 7.85022 44.251 8.03728 44.251 8.30278V9.57607C44.251 9.82948 44.4419 10.0286 44.6881 10.0286H49.3988C49.8299 10.0286 50.0762 10.2639 50.0762 10.6683V22.6284C50.0762 22.8275 50.1071 22.8034 50.2671 22.9844L51.4248 24.0102C51.5972 24.1792 51.8066 24.2697 51.9913 24.1973C52.096 24.1551 52.176 24.0585 52.2253 23.9439C52.2253 23.9439 52.2253 23.9379 52.2253 23.9318C52.2253 23.9318 52.2253 23.9197 52.2253 23.9137C52.2438 23.8715 52.2561 23.8232 52.2622 23.7749C52.2622 23.7448 52.2684 23.7146 52.2684 23.6844V11.0967Z" fill="black"/>
<path d="M71.504 12.9135C71.504 12.66 71.3131 12.4609 71.0667 12.4609H69.7675C69.5027 12.4609 69.3057 12.654 69.3057 12.9135V22.5685C69.3057 22.6349 69.3057 22.6771 69.318 22.7073C69.3364 22.7796 69.3857 22.8038 69.4966 22.9305L70.6542 23.9564C70.7774 24.0771 70.919 24.1555 71.0606 24.1675H71.0667C71.1222 24.1675 71.1715 24.1616 71.2207 24.1434C71.3809 24.0771 71.4855 23.89 71.504 23.6908V23.6607C71.504 23.6607 71.504 23.6426 71.504 23.6305V12.9135Z" fill="black"/>
<path d="M78.0799 15.1645L76.1895 13.2938L75.5614 12.6723C75.3828 12.5275 75.2228 12.4672 75.0133 12.4672H73.8496C73.6402 12.4672 73.671 12.4973 73.4801 12.6542L72.4271 13.8007C72.2547 13.9697 72.1562 14.1809 72.2362 14.362C72.3101 14.5369 72.538 14.6456 72.7596 14.6456H75.4383C75.857 14.6456 76.1156 14.899 76.1156 15.3093V16.48C76.1156 16.7395 76.3126 16.9446 76.5774 16.9446H77.8767C78.1169 16.9446 78.2955 16.7756 78.3325 16.5524V15.7136C78.3325 15.4783 78.2462 15.2912 78.0861 15.1645H78.0799Z" fill="black"/>
<path d="M87.9263 12.6782C87.7721 12.5273 87.6064 12.4609 87.3849 12.4609H83.2281C82.9877 12.4609 82.822 12.5273 82.6678 12.6782L80.1369 15.1583C79.9644 15.3272 79.8905 15.4901 79.8905 15.7074V16.4798C79.8905 16.7393 80.0876 16.9323 80.3524 16.9323H81.6517C81.9164 16.9323 82.1132 16.7393 82.1132 16.4798V15.297C82.1132 14.8746 82.3601 14.6333 82.7908 14.6333H87.8279C88.2405 14.6333 88.4809 14.8746 88.4809 15.297V18.1091L87.5998 17.2461C87.4464 17.0953 87.2733 17.0289 87.0395 17.0289H83.0493C82.8155 17.0289 82.6735 17.0893 82.5078 17.2461L79.9767 19.7263C79.8043 19.8952 79.7305 20.0582 79.7305 20.2573V20.9392C79.7305 21.1564 79.7982 21.3193 79.9521 21.4702L82.4832 23.9503C82.6366 24.1012 82.8097 24.1675 83.0435 24.1675H85.9312C86.1346 24.1675 86.3069 24.1314 86.4981 23.9503L87.6121 22.84C87.7844 22.671 87.8402 22.4659 87.7598 22.2788C87.686 22.1038 87.5014 21.9952 87.2799 21.9952H82.6063C82.1871 21.9952 81.9534 21.7659 81.9534 21.3556V19.8771C81.9534 19.4547 82.1936 19.2134 82.6063 19.2134H87.8279C88.302 19.2134 88.4809 19.3824 88.4809 19.8289V23.721C88.4809 23.9805 88.6778 24.1736 88.9428 24.1736H90.2414C90.5187 24.1736 90.7033 23.9926 90.7033 23.721V15.7134C90.7033 15.4962 90.6294 15.3333 90.4571 15.1643L87.9263 12.6842V12.6782Z" fill="black"/>
<path d="M94.5162 12.4609H93.2167C92.9518 12.4609 92.7549 12.654 92.7549 12.9135V22.5685C92.7549 22.6047 92.7549 22.6288 92.7549 22.653C92.7672 22.7676 92.8098 22.7737 92.9395 22.9305L94.097 23.9564C94.22 24.0771 94.362 24.1555 94.5039 24.1675H94.5096C94.5096 24.1675 94.5219 24.1675 94.5285 24.1675C94.5408 24.1675 94.5466 24.1675 94.5589 24.1675C94.5712 24.1675 94.5835 24.1675 94.5958 24.1675C94.5958 24.1675 94.5958 24.1675 94.6023 24.1675C94.8115 24.1314 94.9469 23.9564 94.9469 23.7271V12.9255C94.9469 12.6721 94.7558 12.473 94.5096 12.473L94.5162 12.4609Z" fill="black"/>
<path d="M103.138 15.1583L100.619 12.666C100.44 12.5212 100.28 12.4609 100.07 12.4609H97.5147C97.3055 12.4609 97.1456 12.5212 96.9487 12.6782L95.8338 13.7885C95.6615 13.9574 95.6066 14.1626 95.6861 14.3497C95.76 14.5246 95.9446 14.6333 96.1669 14.6333H100.483C100.902 14.6333 101.16 14.8868 101.16 15.297V23.715C101.16 23.9866 101.345 24.1675 101.622 24.1675H102.922C103.187 24.1675 103.384 23.9745 103.384 23.715V15.7074C103.384 15.4721 103.297 15.285 103.138 15.1583Z" fill="black"/>
<path d="M113.616 12.6844C113.469 12.5395 113.278 12.4672 113.056 12.4672H108.739C108.511 12.4672 108.327 12.5395 108.179 12.6844L105.648 15.1645C105.494 15.3154 105.427 15.4843 105.427 15.7136V20.6256C105.427 20.861 105.519 21.0239 105.661 21.1868L108.481 23.9324C108.659 24.1437 108.899 24.1738 109.066 24.1738H113.056C113.284 24.1738 113.469 24.1014 113.616 23.9565L116.147 21.4764C116.295 21.3316 116.369 21.1446 116.369 20.9273V15.7197C116.369 15.4964 116.295 15.3154 116.147 15.1705L113.616 12.6904V12.6844ZM114.152 20.0885L112.249 21.9954H108.296C107.877 21.9954 107.643 21.7661 107.643 21.3557V15.3033C107.643 14.8809 107.884 14.6395 108.296 14.6395H113.493C113.906 14.6395 114.146 14.8809 114.146 15.3033V20.0885H114.152Z" fill="black"/>
<path d="M66.7682 20.1971H66.9221L65.6536 20.1851H65.6351C65.4073 20.2032 65.2472 20.2756 65.0994 20.4204L64.7177 20.7946L63.486 22.0014H58.9109C58.486 22.0014 58.2581 21.7721 58.2581 21.3618V15.3093C58.2581 14.8869 58.4983 14.6456 58.9109 14.6456H64.108C64.5206 14.6456 65.0194 14.8869 65.0194 15.3093V15.7257L63.326 17.717H59.4589C59.2372 17.717 59.0525 17.8256 58.9785 18.0007C58.8986 18.1817 58.9539 18.3929 59.1264 18.5618L60.1424 19.3403L60.1547 19.3523C60.3333 19.4972 60.4934 19.5575 60.7028 19.5575H63.3876C63.5538 19.5575 63.794 19.5334 63.9725 19.3161L66.7435 16.6188C66.9098 16.4257 66.9775 16.2688 66.9775 16.0576V15.6955C66.9775 15.4783 66.9098 15.3154 66.7558 15.1645L64.225 12.6844C64.0772 12.5395 63.8863 12.4672 63.6646 12.4672H59.3726C59.1325 12.4672 58.9662 12.5335 58.8123 12.6844L56.2815 15.1645C56.1091 15.3334 56.0352 15.4964 56.0352 15.7136V20.9454C56.0352 21.1627 56.1029 21.3256 56.2568 21.4764L58.7877 23.9565C58.9355 24.1014 59.1264 24.1738 59.348 24.1738H63.5969C63.8371 24.1738 64.0034 24.1074 64.1573 23.9565C64.8901 23.2385 65.629 22.5204 66.3556 21.8023C66.6143 21.5488 66.8975 21.2954 67.1253 21.0239C67.2792 20.867 67.3347 20.6679 67.2608 20.4929C67.1807 20.3118 66.996 20.2032 66.7558 20.2032L66.7682 20.1971Z" fill="black"/>
<path d="M142.712 20.4806C142.632 20.2995 142.448 20.1909 142.207 20.1909H142.362L141.093 20.1788H141.075C140.846 20.197 140.686 20.2693 140.539 20.4142L140.157 20.7883L138.925 21.9952H134.35C133.925 21.9952 133.697 21.7659 133.697 21.3556V15.3031C133.697 14.8807 133.937 14.6393 134.35 14.6393H139.547C139.96 14.6393 140.458 14.8807 140.458 15.3031V15.7194L138.765 17.7108H134.898C134.676 17.7108 134.492 17.8194 134.418 17.9944C134.338 18.1754 134.393 18.3867 134.566 18.5556L135.581 19.334L135.594 19.3461C135.772 19.491 135.932 19.5513 136.142 19.5513H138.827C138.993 19.5513 139.233 19.5271 139.412 19.3099L142.183 16.6126C142.349 16.4194 142.417 16.2626 142.417 16.0513V15.6893C142.417 15.4721 142.349 15.3092 142.195 15.1583L139.664 12.6782C139.517 12.5333 139.325 12.4609 139.104 12.4609H134.812C134.571 12.4609 134.406 12.5273 134.252 12.6782L131.721 15.1583C131.548 15.3272 131.475 15.4901 131.475 15.7074V20.9392C131.475 21.1564 131.542 21.3193 131.696 21.4702L134.227 23.9503C134.375 24.0952 134.566 24.1675 134.787 24.1675H139.036C139.276 24.1675 139.443 24.1012 139.596 23.9503C140.33 23.2322 141.068 22.5142 141.795 21.796C142.053 21.5426 142.337 21.2892 142.564 21.0177C142.719 20.8607 142.773 20.6616 142.7 20.4866L142.712 20.4806Z" fill="black"/>
<path d="M129.338 8.32726C129.338 8.32726 129.338 8.29108 129.332 8.27295C129.332 8.09193 129.239 7.95918 129.097 7.88677C129.085 7.88073 129.067 7.8747 129.055 7.86866C129.005 7.85057 128.95 7.83849 128.9 7.84453H128.895H128.882C128.746 7.86263 128.611 7.94711 128.488 8.06177L127.318 9.09964C127.176 9.26863 127.133 9.26264 127.127 9.40137V13.541L126.247 12.6781C126.092 12.5272 125.92 12.4608 125.686 12.4608H121.714C121.487 12.4608 121.302 12.5333 121.154 12.6781L118.623 15.1582C118.469 15.3091 118.401 15.478 118.401 15.7073V20.9149C118.401 21.1503 118.469 21.3132 118.623 21.4641L121.154 23.9442C121.302 24.089 121.492 24.1614 121.714 24.1614H124.596C124.799 24.1614 124.972 24.1253 125.163 23.9442L126.277 22.8339C126.45 22.6649 126.505 22.4598 126.425 22.2727C126.352 22.0977 126.166 21.9891 125.945 21.9891H121.277C120.858 21.9891 120.625 21.7597 120.625 21.3495V15.297C120.625 14.8746 120.865 14.6332 121.277 14.6332H126.475C126.949 14.6332 127.127 14.8022 127.127 15.2487V23.7089C127.127 23.9683 127.324 24.1614 127.589 24.1614H128.888C129.165 24.1614 129.35 23.9804 129.35 23.7089V8.38764C129.35 8.38764 129.357 8.35138 129.35 8.32726H129.338Z" fill="black"/>
</svg>
