<svg width="216" height="46" viewBox="0 0 216 46" fill="none" xmlns="http://www.w3.org/2000/svg">
<path d="M38.6433 7H26.6048C26.2046 7 25.8721 7.31982 25.8721 7.71809V14.3499C25.8721 14.7421 26.1984 15.0619 26.5987 15.0619H38.6433C39.0435 15.0619 39.3699 14.7421 39.3699 14.3499V7.71809C39.3699 7.32586 39.0435 7 38.6371 7H38.6433Z" fill="#510B98"/>
<path d="M15.9583 7.72412C15.4349 7.20517 15.01 7 14.1664 7H9.73278C9.32636 7 9 7.31982 9 7.71809V14.3499C9 14.7421 9.32636 15.0619 9.72662 15.0619H17.4423C18.8956 15.0619 20.0717 16.2145 20.0717 17.6446V26.847C20.0717 26.847 20.0717 26.8953 20.0717 26.9194V30.9383C20.0717 31.6625 20.2811 32.1754 20.9153 32.7969L27.0238 38.783C27.4918 39.2476 28.2985 38.9158 28.2985 38.2641V32.9357C28.2985 32.9357 28.2985 32.9176 28.2985 32.9056V27.9151C28.2985 27.9151 28.2985 27.891 28.2985 27.8849V20.861C28.2985 20.1368 28.0891 19.6239 27.4548 19.0023L15.9583 7.72412Z" fill="#510B98"/>
<path d="M67.5854 16.5464V15.2732C67.5854 15.0257 67.3761 14.8206 67.1236 14.8206H61.6247C61.3784 14.8206 61.1875 15.0197 61.1875 15.2732V16.5464C61.1875 16.7999 61.3784 16.999 61.6247 16.999H67.1236C67.3761 16.999 67.5854 16.7938 67.5854 16.5464Z" fill="black"/>
<path d="M61.2684 18.0967C61.2684 17.8734 61.1945 17.6924 61.0467 17.5475L58.5282 15.0554C58.3496 14.9106 58.1895 14.8502 57.9801 14.8502H53.6881C53.4296 14.8502 53.251 15.0373 53.251 15.3028V16.5761C53.251 16.8295 53.4419 17.0286 53.6881 17.0286H58.3988C58.8299 17.0286 59.0762 17.2639 59.0762 17.6683V29.6284C59.0762 29.8275 59.1071 29.8034 59.2671 29.9844L60.4248 31.0102C60.5972 31.1792 60.8066 31.2697 60.9913 31.1973C61.096 31.1551 61.176 31.0585 61.2253 30.9439C61.2253 30.9439 61.2253 30.9379 61.2253 30.9318C61.2253 30.9318 61.2253 30.9197 61.2253 30.9137C61.2438 30.8715 61.2561 30.8232 61.2622 30.7749C61.2622 30.7448 61.2684 30.7146 61.2684 30.6844V18.0967Z" fill="black"/>
<path d="M80.504 19.9135C80.504 19.66 80.3131 19.4609 80.0667 19.4609H78.7675C78.5027 19.4609 78.3057 19.654 78.3057 19.9135V29.5685C78.3057 29.6349 78.3057 29.6771 78.318 29.7073C78.3364 29.7796 78.3857 29.8038 78.4966 29.9305L79.6542 30.9564C79.7774 31.0771 79.919 31.1555 80.0606 31.1675H80.0667C80.1222 31.1675 80.1715 31.1616 80.2207 31.1434C80.3809 31.0771 80.4855 30.89 80.504 30.6908V30.6607C80.504 30.6607 80.504 30.6426 80.504 30.6305V19.9135Z" fill="black"/>
<path d="M87.0799 22.1645L85.1895 20.2938L84.5614 19.6723C84.3828 19.5275 84.2228 19.4672 84.0133 19.4672H82.8496C82.6402 19.4672 82.671 19.4973 82.4801 19.6542L81.4271 20.8007C81.2547 20.9697 81.1562 21.1809 81.2362 21.362C81.3101 21.5369 81.538 21.6456 81.7596 21.6456H84.4383C84.857 21.6456 85.1156 21.899 85.1156 22.3093V23.48C85.1156 23.7395 85.3126 23.9446 85.5774 23.9446H86.8767C87.1169 23.9446 87.2955 23.7756 87.3325 23.5524V22.7136C87.3325 22.4783 87.2462 22.2912 87.0861 22.1645H87.0799Z" fill="black"/>
<path d="M96.9263 19.6782C96.7721 19.5273 96.6064 19.4609 96.3849 19.4609H92.2281C91.9877 19.4609 91.822 19.5273 91.6678 19.6782L89.1369 22.1583C88.9644 22.3272 88.8905 22.4901 88.8905 22.7074V23.4798C88.8905 23.7393 89.0876 23.9323 89.3524 23.9323H90.6517C90.9164 23.9323 91.1132 23.7393 91.1132 23.4798V22.297C91.1132 21.8746 91.3601 21.6333 91.7908 21.6333H96.8279C97.2405 21.6333 97.4809 21.8746 97.4809 22.297V25.1091L96.5998 24.2461C96.4464 24.0953 96.2733 24.0289 96.0395 24.0289H92.0493C91.8155 24.0289 91.6735 24.0893 91.5078 24.2461L88.9767 26.7263C88.8043 26.8952 88.7305 27.0582 88.7305 27.2573V27.9392C88.7305 28.1564 88.7982 28.3193 88.9521 28.4702L91.4832 30.9503C91.6366 31.1012 91.8097 31.1675 92.0435 31.1675H94.9312C95.1346 31.1675 95.3069 31.1314 95.4981 30.9503L96.6121 29.84C96.7844 29.671 96.8402 29.4659 96.7598 29.2788C96.686 29.1038 96.5014 28.9952 96.2799 28.9952H91.6063C91.1871 28.9952 90.9534 28.7659 90.9534 28.3556V26.8771C90.9534 26.4547 91.1936 26.2134 91.6063 26.2134H96.8279C97.302 26.2134 97.4809 26.3824 97.4809 26.8289V30.721C97.4809 30.9805 97.6778 31.1736 97.9428 31.1736H99.2414C99.5187 31.1736 99.7033 30.9926 99.7033 30.721V22.7134C99.7033 22.4962 99.6294 22.3333 99.4571 22.1643L96.9263 19.6842V19.6782Z" fill="black"/>
<path d="M103.516 19.4609H102.217C101.952 19.4609 101.755 19.654 101.755 19.9135V29.5685C101.755 29.6047 101.755 29.6288 101.755 29.653C101.767 29.7676 101.81 29.7737 101.939 29.9305L103.097 30.9564C103.22 31.0771 103.362 31.1555 103.504 31.1675H103.51C103.51 31.1675 103.522 31.1675 103.529 31.1675C103.541 31.1675 103.547 31.1675 103.559 31.1675C103.571 31.1675 103.583 31.1675 103.596 31.1675C103.596 31.1675 103.596 31.1675 103.602 31.1675C103.812 31.1314 103.947 30.9564 103.947 30.7271V19.9255C103.947 19.6721 103.756 19.473 103.51 19.473L103.516 19.4609Z" fill="black"/>
<path d="M112.138 22.1583L109.619 19.666C109.44 19.5212 109.28 19.4609 109.07 19.4609H106.515C106.306 19.4609 106.146 19.5212 105.949 19.6782L104.834 20.7885C104.662 20.9574 104.607 21.1626 104.686 21.3497C104.76 21.5246 104.945 21.6333 105.167 21.6333H109.483C109.902 21.6333 110.16 21.8868 110.16 22.297V30.715C110.16 30.9866 110.345 31.1675 110.622 31.1675H111.922C112.187 31.1675 112.384 30.9745 112.384 30.715V22.7074C112.384 22.4721 112.297 22.285 112.138 22.1583Z" fill="black"/>
<path d="M122.616 19.6844C122.469 19.5395 122.278 19.4672 122.056 19.4672H117.739C117.511 19.4672 117.327 19.5395 117.179 19.6844L114.648 22.1645C114.494 22.3154 114.427 22.4843 114.427 22.7136V27.6256C114.427 27.861 114.519 28.0239 114.661 28.1868L117.481 30.9324C117.659 31.1437 117.899 31.1738 118.066 31.1738H122.056C122.284 31.1738 122.469 31.1014 122.616 30.9565L125.147 28.4764C125.295 28.3316 125.369 28.1446 125.369 27.9273V22.7197C125.369 22.4964 125.295 22.3154 125.147 22.1705L122.616 19.6904V19.6844ZM123.152 27.0885L121.249 28.9954H117.296C116.877 28.9954 116.643 28.7661 116.643 28.3557V22.3033C116.643 21.8809 116.884 21.6395 117.296 21.6395H122.493C122.906 21.6395 123.146 21.8809 123.146 22.3033V27.0885H123.152Z" fill="black"/>
<path d="M75.7682 27.1971H75.9221L74.6536 27.1851H74.6351C74.4073 27.2032 74.2472 27.2756 74.0994 27.4204L73.7177 27.7946L72.486 29.0014H67.9109C67.486 29.0014 67.2581 28.7721 67.2581 28.3618V22.3093C67.2581 21.8869 67.4983 21.6456 67.9109 21.6456H73.108C73.5206 21.6456 74.0194 21.8869 74.0194 22.3093V22.7257L72.326 24.717H68.4589C68.2372 24.717 68.0525 24.8256 67.9785 25.0007C67.8986 25.1817 67.9539 25.3929 68.1264 25.5618L69.1424 26.3403L69.1547 26.3523C69.3333 26.4972 69.4934 26.5575 69.7028 26.5575H72.3876C72.5538 26.5575 72.794 26.5334 72.9725 26.3161L75.7435 23.6188C75.9098 23.4257 75.9775 23.2688 75.9775 23.0576V22.6955C75.9775 22.4783 75.9098 22.3154 75.7558 22.1645L73.225 19.6844C73.0772 19.5395 72.8863 19.4672 72.6646 19.4672H68.3726C68.1325 19.4672 67.9662 19.5335 67.8123 19.6844L65.2815 22.1645C65.1091 22.3334 65.0352 22.4964 65.0352 22.7136V27.9454C65.0352 28.1627 65.1029 28.3256 65.2568 28.4764L67.7877 30.9565C67.9355 31.1014 68.1264 31.1738 68.348 31.1738H72.5969C72.8371 31.1738 73.0034 31.1074 73.1573 30.9565C73.8901 30.2385 74.629 29.5204 75.3556 28.8023C75.6143 28.5488 75.8975 28.2954 76.1253 28.0239C76.2792 27.867 76.3347 27.6679 76.2608 27.4929C76.1807 27.3118 75.996 27.2032 75.7558 27.2032L75.7682 27.1971Z" fill="black"/>
<path d="M151.712 27.4806C151.632 27.2995 151.448 27.1909 151.207 27.1909H151.362L150.093 27.1788H150.075C149.846 27.197 149.686 27.2693 149.539 27.4142L149.157 27.7883L147.925 28.9952H143.35C142.925 28.9952 142.697 28.7659 142.697 28.3556V22.3031C142.697 21.8807 142.937 21.6393 143.35 21.6393H148.547C148.96 21.6393 149.458 21.8807 149.458 22.3031V22.7194L147.765 24.7108H143.898C143.676 24.7108 143.492 24.8194 143.418 24.9944C143.338 25.1754 143.393 25.3867 143.566 25.5556L144.581 26.334L144.594 26.3461C144.772 26.491 144.932 26.5513 145.142 26.5513H147.827C147.993 26.5513 148.233 26.5271 148.412 26.3099L151.183 23.6126C151.349 23.4194 151.417 23.2626 151.417 23.0513V22.6893C151.417 22.4721 151.349 22.3092 151.195 22.1583L148.664 19.6782C148.517 19.5333 148.325 19.4609 148.104 19.4609H143.812C143.571 19.4609 143.406 19.5273 143.252 19.6782L140.721 22.1583C140.548 22.3272 140.475 22.4901 140.475 22.7074V27.9392C140.475 28.1564 140.542 28.3193 140.696 28.4702L143.227 30.9503C143.375 31.1012 143.566 31.1675 143.787 31.1675H148.036C148.276 31.1675 148.443 31.1012 148.596 30.9503C149.33 30.2322 150.068 29.5142 150.795 28.796C151.053 28.5426 151.337 28.2892 151.564 28.0177C151.719 27.8607 151.773 27.6616 151.7 27.4866L151.712 27.4806Z" fill="black"/>
<path d="M138.338 15.3273C138.338 15.3273 138.338 15.2911 138.332 15.273C138.332 15.092 138.239 14.9592 138.097 14.8868C138.085 14.8808 138.067 14.8748 138.055 14.8687C138.005 14.8506 137.95 14.8386 137.9 14.8446H137.895H137.882C137.746 14.8627 137.611 14.9472 137.488 15.0618L136.318 16.0997C136.176 16.2687 136.133 16.2627 136.127 16.4014V20.5411L135.247 19.6781C135.092 19.5273 134.92 19.4609 134.686 19.4609H130.714C130.487 19.4609 130.302 19.5333 130.154 19.6782L127.623 22.1583C127.469 22.3091 127.401 22.478 127.401 22.7074V27.915C127.401 28.1504 127.469 28.3133 127.623 28.4642L130.154 30.9443C130.302 31.0891 130.492 31.1615 130.714 31.1615H133.596C133.799 31.1615 133.972 31.1253 134.163 30.9443L135.277 29.834C135.45 29.665 135.505 29.4598 135.425 29.2728C135.352 29.0978 135.166 28.9892 134.945 28.9892H130.277C129.858 28.9892 129.625 28.7598 129.625 28.3495V22.2971C129.625 21.8747 129.865 21.6332 130.277 21.6332H135.475C135.949 21.6332 136.127 21.8022 136.127 22.2487V30.7089C136.127 30.9684 136.324 31.1615 136.589 31.1615H137.888C138.165 31.1615 138.35 30.9805 138.35 30.7089V15.3877C138.35 15.3877 138.357 15.3514 138.35 15.3273H138.338Z" fill="black"/>
<path d="M175.584 22.4205C175.523 21.8826 175.273 21.4659 174.834 21.1705C174.395 20.8712 173.842 20.7216 173.175 20.7216C172.698 20.7216 172.285 20.7973 171.936 20.9489C171.588 21.0966 171.317 21.3011 171.124 21.5625C170.934 21.8201 170.84 22.1136 170.84 22.4432C170.84 22.7197 170.904 22.9583 171.033 23.1591C171.165 23.3598 171.338 23.5284 171.55 23.6648C171.766 23.7973 171.997 23.9091 172.243 24C172.489 24.0871 172.726 24.1591 172.953 24.2159L174.09 24.5114C174.461 24.6023 174.842 24.7254 175.232 24.8807C175.622 25.036 175.984 25.2405 176.317 25.4943C176.65 25.7481 176.919 26.0625 177.124 26.4375C177.332 26.8125 177.436 27.2614 177.436 27.7841C177.436 28.4432 177.266 29.0284 176.925 29.5398C176.588 30.0511 176.097 30.4545 175.453 30.75C174.813 31.0455 174.039 31.1932 173.129 31.1932C172.258 31.1932 171.504 31.0549 170.868 30.7784C170.232 30.5019 169.734 30.1098 169.374 29.6023C169.014 29.0909 168.815 28.4848 168.777 27.7841H170.539C170.573 28.2045 170.709 28.5549 170.948 28.8352C171.19 29.1117 171.499 29.3182 171.874 29.4545C172.253 29.5871 172.667 29.6534 173.118 29.6534C173.614 29.6534 174.056 29.5758 174.442 29.4205C174.832 29.2614 175.139 29.0417 175.362 28.7614C175.586 28.4773 175.698 28.1458 175.698 27.767C175.698 27.4223 175.599 27.1402 175.402 26.9205C175.209 26.7008 174.946 26.5189 174.612 26.375C174.283 26.2311 173.91 26.1042 173.493 25.9943L172.118 25.6193C171.186 25.3655 170.448 24.9924 169.902 24.5C169.361 24.0076 169.09 23.3561 169.09 22.5455C169.09 21.875 169.271 21.2898 169.635 20.7898C169.999 20.2898 170.491 19.9015 171.112 19.625C171.734 19.3447 172.434 19.2045 173.215 19.2045C174.003 19.2045 174.698 19.3428 175.3 19.6193C175.906 19.8958 176.383 20.2765 176.732 20.7614C177.08 21.2424 177.262 21.7955 177.277 22.4205H175.584ZM181.29 19.3636V31H179.534V19.3636H181.29ZM191.722 23.0398C191.612 22.6951 191.464 22.3864 191.279 22.1136C191.097 21.8371 190.879 21.6023 190.625 21.4091C190.371 21.2121 190.082 21.0625 189.756 20.9602C189.434 20.858 189.08 20.8068 188.693 20.8068C188.038 20.8068 187.447 20.9754 186.921 21.3125C186.394 21.6496 185.977 22.1439 185.671 22.7955C185.368 23.4432 185.216 24.2367 185.216 25.1761C185.216 26.1193 185.369 26.9167 185.676 27.5682C185.983 28.2197 186.404 28.714 186.938 29.0511C187.472 29.3883 188.08 29.5568 188.762 29.5568C189.394 29.5568 189.945 29.428 190.415 29.1705C190.888 28.9129 191.254 28.5492 191.512 28.0795C191.773 27.6061 191.904 27.0492 191.904 26.4091L192.358 26.4943H189.029V25.0455H193.602V26.3693C193.602 27.3466 193.394 28.1951 192.977 28.9148C192.565 29.6307 191.993 30.1837 191.262 30.5739C190.534 30.964 189.701 31.1591 188.762 31.1591C187.709 31.1591 186.784 30.9167 185.989 30.4318C185.197 29.947 184.58 29.2595 184.137 28.3693C183.693 27.4754 183.472 26.4148 183.472 25.1875C183.472 24.2595 183.601 23.4261 183.858 22.6875C184.116 21.9489 184.477 21.322 184.943 20.8068C185.413 20.2879 185.964 19.892 186.597 19.6193C187.233 19.3428 187.928 19.2045 188.682 19.2045C189.311 19.2045 189.896 19.2973 190.438 19.483C190.983 19.6686 191.468 19.9318 191.892 20.2727C192.32 20.6136 192.674 21.0189 192.955 21.4886C193.235 21.9545 193.424 22.4716 193.523 23.0398H191.722ZM205.223 19.3636V31H203.61L197.695 22.4659H197.587V31H195.831V19.3636H197.456L203.377 27.9091H203.485V19.3636H205.223Z" fill="black"/>
<line x1="160.232" y1="11" x2="160.232" y2="38" stroke="black"/>
</svg>
